<svg xmlns="http://www.w3.org/2000/svg" width="256" height="256" fill="none" viewBox="0 0 256 256"><defs><clipPath id="a" class="frame-clip frame-clip-def"><rect width="256" height="256" rx="51.095" ry="51.095"/></clipPath></defs><g clip-path="url(#a)"><g class="fills"><rect width="256" height="256" class="frame-background" rx="51.095" ry="51.095"/></g><g class="frame-children"><path d="M130.947 222.398c9.438-9.438 9.422-24.755-.035-34.213-9.458-9.457-24.775-9.473-34.213-.035-9.438 9.438-9.423 24.755.035 34.213 9.457 9.457 24.775 9.473 34.213.035ZM82.835 117.323c-9.927 23.475-5.301 51.662 13.863 70.826m20.314-105.004c23.475-9.926 51.663-5.301 70.826 13.863m34.252 34.246c-9.438 9.439-24.755 9.423-34.213-.035-9.457-9.457-9.473-24.774-.035-34.212 9.438-9.439 24.756-9.423 34.213.035 9.458 9.457 9.473 24.774.035 34.212Zm-108.361-17.217c-9.438 9.438-24.755 9.422-34.212-.035-9.458-9.457-9.473-24.775-.035-34.213 9.437-9.438 24.755-9.422 34.212.035 9.458 9.458 9.473 24.775.035 34.213Zm-34.211-.036Zl-39.874 39.874M153.569 39.95l-39.875 39.874" class="fills"/><g class="strokes"><path d="M130.947 222.398c9.438-9.438 9.422-24.755-.035-34.213-9.458-9.457-24.775-9.473-34.213-.035-9.438 9.438-9.423 24.755.035 34.213 9.457 9.457 24.775 9.473 34.213.035ZM82.835 117.323c-9.927 23.475-5.301 51.662 13.863 70.826m20.314-105.004c23.475-9.926 51.663-5.301 70.826 13.863m34.252 34.246c-9.438 9.439-24.755 9.423-34.213-.035-9.457-9.457-9.473-24.774-.035-34.212 9.438-9.439 24.756-9.423 34.213.035 9.458 9.457 9.473 24.774.035 34.212Zm-108.361-17.217c-9.438 9.438-24.755 9.422-34.212-.035-9.458-9.457-9.473-24.775-.035-34.213 9.437-9.438 24.755-9.422 34.212.035 9.458 9.458 9.473 24.775.035 34.213Zm-34.211-.036Zl-39.874 39.874M153.569 39.95l-39.875 39.874" class="stroke-shape" style="fill:none;stroke-width:9.83843;stroke:#00d1b8;stroke-opacity:1"/></g><path d="M113.729 114.037c-9.438 9.438-24.755 9.422-34.212-.035-9.458-9.457-9.473-24.775-.035-34.213 9.437-9.438 24.755-9.422 34.212.035 9.458 9.458 9.473 24.775.035 34.213Zm-34.211-.036Zl-39.874 39.874M153.569 39.95l-39.875 39.874" class="fills"/><g class="strokes"><path d="M113.729 114.037c-9.438 9.438-24.755 9.422-34.212-.035-9.458-9.457-9.473-24.775-.035-34.213 9.437-9.438 24.755-9.422 34.212.035 9.458 9.458 9.473 24.775.035 34.213Zm-34.211-.036Zl-39.874 39.874M153.569 39.95l-39.875 39.874" class="stroke-shape" style="fill:none;stroke-width:9.83843;stroke:#ff6fe0;stroke-opacity:1"/></g><path d="M130.947 222.398c9.438-9.438 9.422-24.755-.035-34.213-9.458-9.457-24.775-9.473-34.213-.035-9.438 9.438-9.423 24.755.035 34.213 9.457 9.457 24.775 9.473 34.213.035Zm91.143-91.144c-9.438 9.439-24.755 9.423-34.213-.035-9.457-9.457-9.473-24.774-.035-34.212 9.438-9.439 24.756-9.423 34.213.035 9.458 9.457 9.473 24.774.035 34.212Zm-108.361-17.217c-9.438 9.438-24.755 9.422-34.212-.035-9.458-9.457-9.473-24.775-.035-34.213 9.437-9.438 24.755-9.422 34.212.035 9.458 9.458 9.473 24.775.035 34.213Z" class="fills" style="fill:#212426;fill-opacity:1"/><g class="strokes"><path d="M130.947 222.398c9.438-9.438 9.422-24.755-.035-34.213-9.458-9.457-24.775-9.473-34.213-.035-9.438 9.438-9.423 24.755.035 34.213 9.457 9.457 24.775 9.473 34.213.035Zm91.143-91.144c-9.438 9.439-24.755 9.423-34.213-.035-9.457-9.457-9.473-24.774-.035-34.212 9.438-9.439 24.756-9.423 34.213.035 9.458 9.457 9.473 24.774.035 34.212Zm-108.361-17.217c-9.438 9.438-24.755 9.422-34.212-.035-9.458-9.457-9.473-24.775-.035-34.213 9.437-9.438 24.755-9.422 34.212.035 9.458 9.458 9.473 24.775.035 34.213Z" class="stroke-shape" style="fill:none;stroke-width:9.83843;stroke:#00d1b8;stroke-opacity:1"/></g></g></g></svg>